<svg preserveAspectRatio="xMidYMid meet" data-bbox="0 0.816 58.602 15.846" xmlns="http://www.w3.org/2000/svg" viewBox="0 0.816 58.602 15.846" height="17" width="59" data-type="color" role="img" aria-label="Github logo"><defs><style>#comp-lkfn1jcz svg [data-color="1"] {fill: #5F5F5F;}</style></defs>
    <g>
        <g clip-path="url(#c396851c-79d8-4225-bbee-47e01d71b89c_comp-lkfn1jcz)">
            <path fill="#000000" d="M11.286 7.598H6.361a.23.23 0 0 0-.229.23v2.407a.23.23 0 0 0 .23.231h1.921v2.992s-.431.146-1.624.146c-1.407 0-3.372-.514-3.372-4.835s2.046-4.89 3.968-4.89c1.662 0 2.38.292 2.836.434.143.044.275-.1.275-.226l.55-2.327a.21.21 0 0 0-.088-.179C10.642 1.45 9.513.816 6.659.816 3.373.815 0 2.214 0 8.936c0 6.723 3.86 7.726 7.115 7.726 2.694 0 4.328-1.152 4.328-1.152.066-.038.074-.132.074-.174V7.827a.23.23 0 0 0-.229-.23h-.002Z" data-color="1"></path>
            <path fill="#000000" d="M36.665 1.62c0-.129-.1-.231-.227-.231h-2.773a.23.23 0 0 0-.23.23v5.358h-4.32V1.62a.23.23 0 0 0-.23-.231h-2.772a.23.23 0 0 0-.23.23v14.51a.23.23 0 0 0 .23.233h2.772a.23.23 0 0 0 .23-.233V9.924h4.32l-.007 6.205a.23.23 0 0 0 .229.233h2.779a.232.232 0 0 0 .23-.233V1.62Z" data-color="1"></path>
            <path fill="#000000" d="M16.518 3.523c0-1-.8-1.806-1.788-1.806-.987 0-1.788.807-1.788 1.806s.8 1.806 1.788 1.806 1.788-.809 1.788-1.806Z" data-color="1"></path>
            <path fill="#000000" d="M16.32 13.068V6.372a.23.23 0 0 0-.23-.231h-2.764c-.127 0-.24.13-.24.258v9.596c0 .282.175.366.403.366h2.49c.274 0 .34-.133.34-.37v-2.924Z" data-color="1"></path>
            <path fill="#000000" d="M47.202 6.162H44.45a.23.23 0 0 0-.229.233v7.115s-.7.51-1.69.51c-.991 0-1.256-.45-1.256-1.422V6.395a.23.23 0 0 0-.23-.233h-2.792a.232.232 0 0 0-.23.233v6.674c0 2.884 1.608 3.59 3.821 3.59 1.814 0 3.278-1.002 3.278-1.002s.07.529.101.59a.241.241 0 0 0 .202.126l1.777-.008c.125 0 .23-.104.23-.231v-9.74a.232.232 0 0 0-.232-.232h.002Z" data-color="1"></path>
            <path fill="#000000" d="M54.723 5.835c-1.563 0-2.626.698-2.626.698V1.62a.23.23 0 0 0-.23-.231h-2.78a.23.23 0 0 0-.23.23v14.51a.23.23 0 0 0 .23.233h1.93c.086 0 .153-.046.202-.124.047-.078.117-.669.117-.669s1.137 1.077 3.29 1.077c2.526 0 3.976-1.282 3.976-5.754 0-4.473-2.315-5.057-3.879-5.057Zm-1.085 8.174a3.304 3.304 0 0 1-1.601-.462V8.952s.638-.392 1.422-.462c.99-.089 1.946.21 1.946 2.574 0 2.493-.431 2.984-1.765 2.945h-.002Z" data-color="1"></path>
            <path fill="#000000" d="M24.289 6.139h-2.08l-.003-2.748c0-.105-.053-.157-.174-.157h-2.834c-.11 0-.169.05-.169.155v2.839s-1.42.343-1.516.371a.23.23 0 0 0-.166.221v1.785a.23.23 0 0 0 .23.231h1.452v4.292c0 3.189 2.237 3.501 3.745 3.501.69 0 1.515-.221 1.652-.271.083-.031.13-.116.13-.209v-1.962a.23.23 0 0 0-.228-.23c-.122 0-.431.048-.75.048-1.022 0-1.368-.475-1.368-1.09V8.836h2.079a.23.23 0 0 0 .23-.231V6.37a.23.23 0 0 0-.23-.231Z" data-color="1"></path>
        </g>
        <defs fill="none">
            <clipPath id="c396851c-79d8-4225-bbee-47e01d71b89c_comp-lkfn1jcz">
                <path transform="translate(0 .814)" fill="#ffffff" d="M58.601 0v15.848H0V0h58.601z"></path>
            </clipPath>
        </defs>
    </g>
</svg>
