<svg version="1.1" id="Layer_1" xmlns="http://www.w3.org/2000/svg" xmlns:xlink="http://www.w3.org/1999/xlink" x="0px" y="0px"
	 width="100%" viewBox="0 0 992 992" enable-background="new 0 0 992 992" xml:space="preserve">
<path fill="#FFFFFF" opacity="1.000000" stroke="none"
	d="
M526.950500,245.049622
	C541.952026,260.007416 556.609924,274.811218 571.528931,289.347046
	C574.824219,292.557739 574.916992,294.510529 571.621216,297.724152
	C557.305603,311.682953 543.135986,325.794373 529.096924,340.031342
	C526.180176,342.989197 524.380066,342.983429 521.467896,340.045685
	C504.575317,323.004944 487.512329,306.133026 470.496124,289.214935
	C465.791656,284.537628 465.751404,284.531342 461.126343,289.117950
	C429.533295,320.448212 397.924164,351.762421 366.412537,383.174377
	C363.734161,385.844299 361.022217,387.123108 357.200562,387.079102
	C327.376251,386.735657 297.550079,386.558838 267.724640,386.309967
	C266.423920,386.299103 265.124908,386.087433 263.909332,385.976929
	C263.198669,383.833984 264.751251,383.050659 265.751740,382.053284
	C315.439178,332.519897 365.169830,283.029846 414.817383,233.456482
	C428.692902,219.601730 445.384674,211.994659 464.859192,211.884644
	C483.781067,211.777740 500.235413,218.962128 513.951538,232.096893
	C518.283508,236.245224 522.455627,240.560379 526.950500,245.049622
z"/>
<path fill="#FFFFFF" opacity="1.000000" stroke="none"
	d="
M710.978027,284.902283
	C715.514832,285.292358 719.725891,284.044373 723.650024,285.901520
	C723.415222,288.232605 721.706116,289.216339 720.451782,290.468475
	C670.227539,340.603882 619.893677,390.630005 569.780701,440.876312
	C545.072388,465.650391 504.883209,465.442322 481.496368,442.311584
	C460.530731,421.575531 439.707275,400.695801 418.767059,379.933960
	C416.808380,377.991943 416.640808,376.563477 418.662506,374.555511
	C433.674408,359.645203 448.659088,344.706757 463.545654,329.671539
	C466.452332,326.735840 468.071503,328.635498 470.059143,330.622742
	C486.787598,347.348083 503.562592,364.026978 520.264404,380.778839
	C521.776367,382.295349 522.873413,384.225616 524.563232,385.579834
	C527.075195,384.826324 527.907471,383.203796 529.043274,382.074066
	C560.225891,351.058380 591.419678,320.053680 622.496826,288.932587
	C625.549072,285.875977 628.636230,284.525574 633.012207,284.570404
	C658.834045,284.835144 684.658752,284.819489 710.978027,284.902283
z"/>
<path fill="#FFFFFF" opacity="1.000000" stroke="none"
	d="
M467.382629,537.000122
	C467.146881,548.452332 467.976685,559.426697 466.765930,570.562866
	C475.911499,559.062317 486.263184,548.789795 495.832306,537.823181
	C499.058563,534.125732 502.334442,532.222778 507.359161,532.531189
	C513.976807,532.937500 520.638184,532.631042 527.185120,532.631042
	C528.120789,535.397034 526.136719,536.345642 525.015015,537.573669
	C516.030823,547.409607 507.067749,557.268250 497.892548,566.924438
	C495.159668,569.800598 494.563019,571.874329 497.210785,575.336914
	C507.427521,588.697937 517.329041,602.300415 527.299988,615.848267
	C528.346191,617.269714 529.862732,618.489929 530.003906,621.193604
	C521.204529,621.193604 512.485596,621.253296 503.768585,621.150635
	C501.660858,621.125793 500.871582,619.056335 499.836426,617.616211
	C492.460602,607.354980 485.143768,597.051331 477.854584,586.826233
	C469.516998,590.268555 467.367828,593.390198 467.376770,601.687561
	C467.381989,606.518005 467.202423,611.356323 467.425903,616.176331
	C467.601868,619.972107 466.417358,621.672424 462.348022,621.399719
	C457.870789,621.099731 453.337524,621.062683 448.866241,621.403748
	C444.133698,621.764648 442.521942,620.179321 442.573120,615.278137
	C442.804474,593.127197 442.666718,570.972290 442.664124,548.818848
	C442.662323,533.661194 442.800568,518.501587 442.579773,503.347168
	C442.514984,498.900818 444.060944,497.389404 448.382935,497.692932
	C452.526520,497.983917 456.728638,498.017944 460.865356,497.679749
	C465.742279,497.281006 467.676941,498.755920 467.486572,504.023682
	C467.095856,514.836243 467.377655,525.673157 467.382629,537.000122
z"/>
<path fill="#FFFFFF" opacity="1.000000" stroke="none"
	d="
M732.619751,535.158936
	C751.463135,544.293213 756.751404,566.032104 754.873169,583.040955
	C754.437195,586.989075 753.770203,590.976807 752.627747,594.771179
	C746.062866,616.573730 727.222229,625.084229 706.564941,622.762512
	C683.617859,620.183472 669.835938,604.341003 668.735046,581.005005
	C668.443542,574.825378 668.815735,568.693665 670.150208,562.638977
	C675.822571,536.902588 697.049927,528.835815 718.399780,531.084351
	C723.218750,531.591919 727.859192,532.960510 732.619751,535.158936
M702.993835,553.303589
	C700.205322,555.018188 698.075562,557.364197 696.995605,560.436401
	C693.169495,571.320984 692.970886,582.334595 696.993774,593.142944
	C699.665222,600.320190 704.829102,602.988098 713.332825,602.676514
	C720.190063,602.425232 725.219788,598.799438 727.381409,591.946289
	C729.867737,584.063599 730.167603,576.036682 728.832947,567.801758
	C726.514526,553.496887 717.424622,547.967407 702.993835,553.303589
z"/>
<path fill="#FFFFFF" opacity="1.000000" stroke="none"
	d="
M392.780884,599.670715
	C394.852051,598.999939 396.385437,597.734253 398.883911,598.494568
	C399.633423,603.894287 399.369781,609.486633 399.074097,615.066589
	C398.981934,616.805237 397.446228,617.564880 396.054321,618.076172
	C378.216217,624.628723 360.337067,625.903687 342.780029,617.399719
	C332.744507,612.538879 326.833832,603.898987 323.975616,593.349854
	C320.774170,581.533813 321.169891,569.609985 324.812073,557.935730
	C331.512604,536.458374 350.340668,528.488708 370.408936,531.194336
	C392.315643,534.148010 403.605865,547.618164 404.231262,569.840515
	C404.611694,583.357910 404.611664,583.354858 391.020477,583.348572
	C378.201904,583.342651 365.383301,583.325806 352.564789,583.350769
	C347.041992,583.361572 346.844238,583.668762 348.244751,589.123169
	C350.575439,598.200317 356.672211,603.282043 366.002319,603.844177
	C375.088043,604.391541 383.930511,603.275696 392.780884,599.670715
M358.673004,549.831543
	C352.658478,551.908997 350.041687,556.759155 348.549164,562.432800
	C347.897736,564.909363 348.497314,566.670593 351.626221,566.649841
	C360.088562,566.593750 368.551514,566.620972 377.014160,566.643860
	C379.840210,566.651489 380.746582,565.579407 380.189117,562.619202
	C378.260193,552.376709 371.800690,548.213806 358.673004,549.831543
z"/>
<path fill="#FFFFFF" opacity="1.000000" stroke="none"
	d="
M570.487305,587.412415
	C563.757629,569.631775 557.158569,552.215881 550.593445,534.787231
	C550.440308,534.380737 550.668152,533.830688 550.785339,532.700867
	C558.382019,532.700867 565.991638,532.707031 573.601257,532.696472
	C575.432312,532.693970 576.281250,533.869446 576.761719,535.369751
	C582.840393,554.352234 590.275208,572.894714 595.219543,592.243774
	C595.461060,593.188904 595.446777,594.199402 595.951599,595.260803
	C598.890381,582.772217 603.572693,570.897522 607.588989,558.806274
	C610.052307,551.390259 612.657715,544.020081 615.020935,536.572693
	C615.903320,533.792053 617.311462,532.519287 620.359314,532.593079
	C627.451294,532.764954 634.550293,532.647888 641.424561,532.647888
	C642.167297,535.207764 641.225281,536.675720 640.645325,538.196594
	C630.867310,563.838318 620.962585,589.432617 611.389648,615.150513
	C609.686401,619.726257 607.586609,622.184814 602.480347,621.394348
	C600.366943,621.067200 598.160706,621.340698 595.996643,621.339905
	C583.301453,621.335205 583.317688,621.328979 578.952271,609.698303
	C576.205322,602.379578 573.400818,595.082458 570.487305,587.412415
z"/>
<path fill="#FFFFFF" opacity="1.000000" stroke="none"
	d="
M290.941650,616.387207
	C290.560547,618.990112 288.905151,619.769958 287.107208,620.312622
	C277.568573,623.191345 267.898285,624.384705 258.093079,621.921753
	C247.768936,619.328430 241.501541,611.013184 240.636429,599.664856
	C239.597122,586.031372 240.275696,572.386658 240.059219,558.749146
	C239.947784,551.729919 240.017532,551.749146 233.098648,551.339172
	C231.522781,551.245850 229.219055,551.732483 229.031036,549.513245
	C228.749390,546.188599 227.413864,542.561035 230.367294,539.623779
	C230.600525,539.391785 230.873138,539.147888 231.173981,539.043030
	C241.158691,535.562012 244.792572,527.142883 247.376175,518.008484
	C248.389877,514.424561 250.603561,513.555115 254.051712,513.632568
	C266.899200,513.921509 265.176575,512.191040 265.302765,524.755249
	C265.381989,532.643127 265.323517,532.640625 273.190338,532.636169
	C277.517548,532.633728 281.845978,532.708557 286.171478,532.624695
	C288.927795,532.571350 290.166962,533.819946 290.081757,536.513977
	C290.076508,536.679871 290.099243,536.846558 290.097839,537.012756
	C289.947510,554.756775 292.210693,551.040283 276.654846,551.321899
	C265.316254,551.527283 265.306976,551.351440 265.303925,562.671631
	C265.301270,572.657532 265.273132,582.643616 265.334534,592.629211
	C265.377625,599.637878 268.422546,602.584656 275.355408,602.766296
	C279.234619,602.868042 282.975433,602.184082 286.659393,601.143250
	C289.722046,600.277954 291.103851,601.376709 291.080811,604.472351
	C291.052307,608.299805 291.020721,612.127197 290.941650,616.387207
z"/>
</svg>
