<svg preserveAspectRatio="xMidYMid meet" data-bbox="0.135 0.816 80.304 18.307" xmlns="http://www.w3.org/2000/svg" viewBox="0.135 0.816 80.304 18.307" height="20" width="81" data-type="color" role="img" aria-label="Unsplash logo"><defs><style>#comp-lupeihsx svg [data-color="1"] {fill=#ffffff;}</style></defs>
    <g>
        <path fill="#ffffff" d="M10.652 7.606h4.836v8.563H.135V7.606H4.97v4.28h5.682v-4.28Zm16.335 4.391c0 1.45-.957 2.307-2.266 2.307-1.278 0-2.25-.858-2.25-2.307V5.103h-2.146v6.873c0 2.714 1.932 4.428 4.402 4.428s4.417-1.714 4.417-4.428V5.103h-2.152l-.005 6.894Zm7.676-3.711c-.826 0-1.746.351-2.213 1.154v-.95h-2.012v7.665h2.075v-4.409c0-.878.527-1.58 1.433-1.58.998 0 1.42.67 1.42 1.527v4.462h2.072v-4.832c.005-1.685-.868-3.04-2.77-3.04l-.005.003Zm7.607 3.227-1.138-.234c-.434-.088-.703-.31-.703-.685 0-.437.392-.764.936-.764.766 0 1.07.395 1.144.857h1.788c-.014-1.054-.849-2.43-2.9-2.43-1.653 0-2.868 1.136-2.868 2.507 0 1.077.669 1.966 2.15 2.284l1.062.233c.592.125.826.406.826.749 0 .405-.376.764-1.054.764-.827 0-1.277-.471-1.383-1.017h-1.844c.104 1.147.935 2.606 3.243 2.606 2.01 0 3.024-1.278 3.024-2.526-.002-1.117-.766-2.035-2.278-2.348l-.005.004Zm11.099.795c0 2.322-1.451 4.04-3.617 4.04-1.054 0-1.84-.421-2.215-.936v3.711h-2.072V8.486h2.011v.95c.351-.591 1.2-1.122 2.354-1.122 2.25 0 3.544 1.714 3.544 3.99l-.005.004Zm-2.043.016c0-1.356-.841-2.152-1.902-2.152s-1.916.796-1.916 2.152.857 2.166 1.916 2.166 1.916-.798 1.916-2.17l-.014.004ZM63.27 8.49h2.01v7.665h-2.072v-.933c-.35.615-1.154 1.12-2.215 1.12-2.165 0-3.616-1.715-3.616-4.039 0-2.283 1.294-3.99 3.54-3.99 1.153 0 1.987.535 2.353 1.122V8.49Zm-.032 3.834c0-1.356-.857-2.152-1.916-2.152-1.06 0-1.902.793-1.902 2.149 0 1.356.841 2.165 1.902 2.165 1.06 0 1.918-.808 1.918-2.165l-.002.003Zm-8.898 3.83h2.073V5.105H54.34v11.05Zm23.246-7.87c-.732 0-1.58.248-2.074.84v-4.02H73.44v11.05h2.072V11.65c.048-.844.562-1.497 1.435-1.497.998 0 1.42.673 1.418 1.53v4.474h2.074v-4.834c-.002-1.685-.905-3.039-2.852-3.039ZM70.21 11.51l-1.13-.234c-.434-.087-.703-.31-.703-.684 0-.438.39-.765.937-.765.764 0 1.068.396 1.141.858h1.787c-.014-1.054-.849-2.431-2.9-2.431-1.653 0-2.868 1.136-2.868 2.508 0 1.077.67 1.965 2.151 2.283l1.054.234c.592.124.826.406.826.748 0 .406-.376.764-1.054.764-.828 0-1.277-.47-1.383-1.017h-1.842c.102 1.147.933 2.607 3.24 2.607 2.012 0 3.025-1.279 3.025-2.526 0-1.114-.764-2.032-2.275-2.345h-.006ZM10.652.816H4.97v4.28h5.682V.816Z" data-color="1"></path>
    </g>
</svg>
