<svg width="1000" height="1000" viewBox="0 0 1000 1000" fill="none" xmlns="http://www.w3.org/2000/svg">
<path d="M313.928 996C309.288 996 305.267 994.531 301.864 991.592C298.461 988.499 296.76 984.787 296.76 980.456V849.144C296.76 844.813 298.384 841.179 301.632 838.24C305.035 835.147 309.133 833.6 313.928 833.6H375.408C390.875 833.6 403.171 837.776 412.296 846.128C421.576 854.48 426.216 865.693 426.216 879.768C426.216 886.109 424.437 892.219 420.88 898.096C417.477 903.819 412.915 908.381 407.192 911.784V912.712C415.08 915.496 421.344 920.059 425.984 926.4C430.624 932.741 432.944 939.779 432.944 947.512C432.944 956.947 430.701 965.376 426.216 972.8C421.731 980.069 415.467 985.792 407.424 989.968C399.381 993.989 390.179 996 379.816 996H313.928ZM374.944 900.648C379.739 900.648 383.76 898.792 387.008 895.08C390.411 891.213 392.112 886.573 392.112 881.16C392.112 875.283 390.565 870.72 387.472 867.472C384.379 864.069 380.203 862.368 374.944 862.368H329.936V900.648H374.944ZM379.584 967.232C385.461 967.232 390.101 965.531 393.504 962.128C397.061 958.571 398.84 953.853 398.84 947.976C398.84 941.944 397.139 937.304 393.736 934.056C390.333 930.653 385.616 928.952 379.584 928.952H329.936V967.232H379.584ZM508.52 998.088C497.384 998.088 487.253 996 478.128 991.824C469.157 987.648 462.042 981.771 456.784 974.192C451.68 966.613 449.128 957.875 449.128 947.976C449.128 938.696 451.448 930.499 456.088 923.384C460.882 916.269 468.229 909.309 478.128 902.504C472.869 897.709 469.002 892.915 466.528 888.12C464.208 883.171 463.048 877.912 463.048 872.344C463.048 859.971 466.992 850.072 474.88 842.648C482.768 835.224 493.285 831.512 506.432 831.512C514.784 831.512 522.285 833.291 528.936 836.848C535.586 840.251 540.768 845.045 544.48 851.232C548.192 857.419 550.048 864.456 550.048 872.344C550.048 879.304 548.192 885.413 544.48 890.672C540.922 895.931 534.968 902.04 526.616 909L560.024 939.856C564.973 931.813 567.448 923.384 567.448 914.568C567.448 911.165 567.138 908.227 566.52 905.752C577.037 905.752 585.002 907.376 590.416 910.624C595.984 913.872 598.768 919.131 598.768 926.4C598.768 931.504 597.376 936.685 594.592 941.944C591.962 947.203 587.786 953.312 582.064 960.272L606.888 983.704C605.341 988.189 602.557 991.592 598.536 993.912C594.669 996.232 590.416 997.392 585.776 997.392C579.434 997.392 574.253 995.613 570.232 992.056L559.792 983.008C551.749 988.421 543.706 992.288 535.664 994.608C527.776 996.928 518.728 998.088 508.52 998.088ZM506.432 888.816C513.082 883.712 516.408 878.221 516.408 872.344C516.408 868.787 515.48 865.925 513.624 863.76C511.922 861.44 509.525 860.28 506.432 860.28C503.338 860.28 500.941 861.44 499.24 863.76C497.538 865.925 496.688 868.787 496.688 872.344C496.688 875.437 497.384 878.221 498.776 880.696C500.168 883.171 502.72 885.877 506.432 888.816ZM509.68 968.392C520.661 968.392 530.25 965.685 538.448 960.272L499.472 924.08C494.368 927.019 490.346 930.653 487.408 934.984C484.624 939.315 483.232 943.645 483.232 947.976C483.232 954.627 485.629 959.731 490.424 963.288C495.218 966.691 501.637 968.392 509.68 968.392ZM680.432 938L623.128 834.992C624.674 834.064 627.072 833.291 630.32 832.672C633.722 831.899 636.816 831.512 639.6 831.512C645.786 831.512 650.968 832.827 655.144 835.456C659.32 837.931 662.954 841.952 666.048 847.52L696.904 905.056L689.944 919.44L692.728 920.6L728.92 847.52C734.178 836.848 742.994 831.512 755.368 831.512C758.152 831.512 761.168 831.899 764.416 832.672C767.818 833.291 770.293 834.064 771.84 834.992L714.536 938.232V973.496C714.536 981.539 711.597 987.648 705.72 991.824C699.997 996 691.568 998.088 680.432 998.088V938Z" fill="white"/>
<path fill-rule="evenodd" clip-rule="evenodd" d="M241.464 221.37C243.91 217.837 248.757 216.955 252.293 219.4C255.827 221.847 256.708 226.694 254.262 230.228C219.647 280.237 201.349 338.942 201.349 400C201.349 451.322 214.582 501.937 239.617 546.373C241.727 550.117 240.402 554.864 236.656 556.974C235.45 557.653 234.138 557.977 232.843 557.977C230.124 557.977 227.485 556.55 226.056 554.013C199.71 507.25 185.784 453.993 185.784 400C185.784 335.762 205.038 273.993 241.464 221.37ZM500 698.652C559.107 698.652 616.246 681.418 665.242 648.812C668.819 646.432 673.651 647.402 676.033 650.98C678.414 654.557 677.444 659.39 673.865 661.77C622.306 696.082 562.185 714.217 500 714.217C443.237 714.217 387.609 698.915 339.13 669.968C335.439 667.764 334.235 662.987 336.438 659.296C338.641 655.607 343.42 654.402 347.109 656.604C393.177 684.111 446.046 698.652 500 698.652ZM758.495 250.322C756.339 246.604 757.604 241.842 761.32 239.683C765.041 237.528 769.802 238.792 771.958 242.509C799.603 290.15 814.217 344.609 814.217 400C814.217 462.571 795.871 523.006 761.164 574.77C759.664 577.009 757.201 578.219 754.694 578.219C753.203 578.219 751.696 577.792 750.366 576.9C746.796 574.508 745.843 569.673 748.236 566.102C781.218 516.911 798.652 459.474 798.652 400C798.652 347.35 784.764 295.591 758.495 250.322ZM333.027 152.347C331.691 153.25 330.176 153.682 328.677 153.682C326.179 153.682 323.726 152.483 322.222 150.256C319.816 146.695 320.752 141.856 324.314 139.45C376.284 104.341 437.035 85.7827 500 85.7827C553.509 85.7827 606.346 99.4721 652.8 125.373C656.553 127.467 657.9 132.206 655.807 135.96C653.713 139.715 648.973 141.06 645.22 138.968C601.077 114.356 550.862 101.348 500 101.348C440.151 101.348 382.413 118.983 333.027 152.347Z" fill="#C6E500"/>
<path d="M610.151 405.036L777.764 677.766L505.037 510.151L100 800L389.849 394.965L222.234 122.233L494.963 289.847L900 0L610.151 405.036Z" fill="#C6E500"/>
</svg>
