<svg width="1000" height="1000" viewBox="0 0 1000 1000" fill="none" xmlns="http://www.w3.org/2000/svg">
<path d="M24.4571 910.55V896.25L87.7071 896.36C90.9338 896.36 93.3904 895.627 95.0771 894.16C96.8371 892.62 97.7171 890.163 97.7171 886.79C97.7171 883.417 96.8371 880.997 95.0771 879.53C93.3904 877.99 90.9338 877.22 87.7071 877.22H48.3271C40.1871 877.22 33.8438 875.277 29.2971 871.39C24.8238 867.43 22.5871 861.637 22.5871 854.01C22.5871 846.383 24.8238 840.627 29.2971 836.74C33.8438 832.78 40.1871 830.8 48.3271 830.8H110.147V845.1L50.1971 844.99C47.0438 844.99 44.5871 845.723 42.8271 847.19C41.0671 848.583 40.1871 850.857 40.1871 854.01C40.1871 857.163 41.0671 859.473 42.8271 860.94C44.5871 862.333 47.0438 863.03 50.1971 863.03H89.5771C97.7171 863.03 104.024 865.047 108.497 869.08C113.044 873.04 115.317 878.943 115.317 886.79C115.317 894.563 113.044 900.467 108.497 904.5C104.024 908.533 97.7171 910.55 89.5771 910.55H24.4571ZM153.742 910.55C143.916 910.55 136.252 908.13 130.752 903.29C125.252 898.377 122.502 891.19 122.502 881.73C122.502 872.197 125.252 865.01 130.752 860.17C136.252 855.257 143.916 852.8 153.742 852.8H174.092C183.919 852.8 191.582 855.257 197.082 860.17C202.582 865.01 205.332 872.197 205.332 881.73C205.332 891.19 202.582 898.377 197.082 903.29C191.582 908.13 183.919 910.55 174.092 910.55H153.742ZM153.742 897.9H174.092C178.859 897.9 182.489 896.58 184.982 893.94C187.549 891.3 188.832 887.23 188.832 881.73C188.832 876.157 187.549 872.05 184.982 869.41C182.489 866.77 178.859 865.45 174.092 865.45H153.742C148.976 865.45 145.309 866.77 142.742 869.41C140.249 872.05 139.002 876.157 139.002 881.73C139.002 887.23 140.249 891.3 142.742 893.94C145.309 896.58 148.976 897.9 153.742 897.9ZM233.299 910C226.846 910 222.116 908.387 219.109 905.16C216.176 901.933 214.709 897.753 214.709 892.62V853.35H230.659V890.75C230.659 895.15 232.859 897.35 237.259 897.35H260.139C264.539 897.35 266.739 895.15 266.739 890.75V853.35H282.689V892.62C282.689 897.753 281.186 901.933 278.179 905.16C275.246 908.387 270.552 910 264.099 910H233.299ZM294.214 910V853.35H343.604C350.057 853.35 354.751 854.963 357.684 858.19C360.691 861.343 362.194 865.523 362.194 870.73V910H346.244V872.6C346.244 868.2 344.044 866 339.644 866H310.164V910H294.214ZM443.446 910H427.496V831.35H443.446V910ZM440.696 910H402.746C392.92 910 385.256 907.58 379.756 902.74C374.256 897.9 371.506 890.897 371.506 881.73C371.506 872.49 374.256 865.45 379.756 860.61C385.256 855.77 392.92 853.35 402.746 853.35H439.596V866H402.746C397.98 866 394.313 867.32 391.746 869.96C389.253 872.527 388.006 876.45 388.006 881.73C388.006 886.937 389.253 890.86 391.746 893.5C394.313 896.067 397.98 897.35 402.746 897.35H440.696V910ZM453.692 910.55V897.9H507.592C510.672 897.9 512.212 896.177 512.212 892.73C512.212 889.357 510.672 887.67 507.592 887.67H472.722C466.195 887.67 461.245 886.203 457.872 883.27C454.498 880.263 452.812 875.973 452.812 870.4C452.812 864.753 454.498 860.427 457.872 857.42C461.318 854.34 466.268 852.8 472.722 852.8H522.882V865.45H473.492C470.338 865.45 468.762 866.99 468.762 870.07C468.762 871.61 469.202 872.82 470.082 873.7C470.962 874.58 472.098 875.02 473.492 875.02H510.452C516.172 875.02 520.535 876.523 523.542 879.53C526.622 882.463 528.162 886.753 528.162 892.4C528.162 898.12 526.622 902.593 523.542 905.82C520.462 908.973 516.098 910.55 510.452 910.55H453.692ZM574.112 910.55V897.9H628.012C631.092 897.9 632.632 896.177 632.632 892.73C632.632 889.357 631.092 887.67 628.012 887.67H593.142C586.615 887.67 581.665 886.203 578.292 883.27C574.918 880.263 573.232 875.973 573.232 870.4C573.232 864.753 574.918 860.427 578.292 857.42C581.738 854.34 586.688 852.8 593.142 852.8H643.302V865.45H593.912C590.758 865.45 589.182 866.99 589.182 870.07C589.182 871.61 589.622 872.82 590.502 873.7C591.382 874.58 592.518 875.02 593.912 875.02H630.872C636.592 875.02 640.955 876.523 643.962 879.53C647.042 882.463 648.582 886.753 648.582 892.4C648.582 898.12 647.042 902.593 643.962 905.82C640.882 908.973 636.518 910.55 630.872 910.55H574.112ZM686.985 910.55C677.158 910.55 669.495 908.13 663.995 903.29C658.495 898.377 655.745 891.19 655.745 881.73C655.745 872.197 658.495 865.01 663.995 860.17C669.495 855.257 677.158 852.8 686.985 852.8H723.835V865.45H686.985C682.218 865.45 678.551 866.77 675.985 869.41C673.491 872.05 672.245 876.157 672.245 881.73C672.245 887.23 673.491 891.3 675.985 893.94C678.551 896.58 682.218 897.9 686.985 897.9H724.935V910.55H686.985ZM748.21 910C742.27 910 737.723 908.497 734.57 905.49C731.417 902.483 729.84 898.193 729.84 892.62C729.84 887.12 731.417 882.867 734.57 879.86C737.723 876.853 742.27 875.35 748.21 875.35H790.45V872.71C790.45 868.237 788.25 866 783.85 866H737.21V853.35H788.03C794.703 853.35 799.433 854.89 802.22 857.97C805.007 860.977 806.4 865.23 806.4 870.73V910H748.21ZM751.07 897.35H790.45V888H751.07C749.677 888 748.577 888.44 747.77 889.32C747.037 890.127 746.67 891.227 746.67 892.62C746.67 894.013 747.037 895.15 747.77 896.03C748.577 896.91 749.677 897.35 751.07 897.35ZM818.54 934.75V853.35H859.24C869.067 853.35 876.73 855.77 882.23 860.61C887.73 865.45 890.48 872.453 890.48 881.62C890.48 890.86 887.73 897.9 882.23 902.74C876.73 907.58 869.067 910 859.24 910H834.49V934.75H818.54ZM859.24 866H834.49V897.35H859.24C864.007 897.35 867.637 896.067 870.13 893.5C872.697 890.86 873.98 886.9 873.98 881.62C873.98 876.413 872.697 872.527 870.13 869.96C867.637 867.32 864.007 866 859.24 866ZM929.436 910.55C919.609 910.55 911.946 908.13 906.446 903.29C900.946 898.377 898.196 891.19 898.196 881.73C898.196 872.197 900.946 865.01 906.446 860.17C911.946 855.257 919.609 852.8 929.436 852.8H956.936C963.389 852.8 968.302 854.34 971.676 857.42C975.122 860.427 976.846 864.753 976.846 870.4C976.846 881.913 970.209 887.67 956.936 887.67H915.356C916.896 894.49 921.589 897.9 929.436 897.9H973.986V910.55H929.436ZM929.436 865.45C921.882 865.45 917.226 868.64 915.466 875.02H956.166C957.632 875.02 958.769 874.58 959.576 873.7C960.456 872.82 960.896 871.61 960.896 870.07C960.896 866.99 959.319 865.45 956.166 865.45H929.436Z" fill="#EBF1FF"/>
<path d="M112 268.667C112 120.286 232.286 0 380.667 0H669.842V517.335C669.842 528.38 660.887 537.335 649.842 537.335H380.667C232.286 537.335 112 417.048 112 268.667V268.667Z" fill="#5E5D5D"/>
<path d="M862 481.333C862 629.714 741.714 750 593.333 750L304.158 750L304.158 232.665C304.158 221.62 313.113 212.665 324.158 212.665L593.333 212.665C741.714 212.665 862 332.952 862 481.333V481.333Z" fill="#5E5D5D"/>
<path d="M304.158 232.666C304.158 221.62 313.113 212.666 324.158 212.666H669.842V517.335C669.842 528.38 660.887 537.335 649.842 537.335H304.158V232.666Z" fill="white"/>
</svg>
