<?xml version="1.0" encoding="UTF-8"?>
<svg version="1.1" xmlns="http://www.w3.org/2000/svg" width="1024" height="1024">
<path d="M0 0 C10.6240054 -0.46191328 22.74907068 1.89122953 32.00390625 7.16015625 C32.81472656 7.6190625 33.62554688 8.07796875 34.4609375 8.55078125 C41.43804278 12.75951826 47.66756093 17.78211767 53.97265625 22.91015625 C58.13000056 26.28340419 62.36889642 29.54303334 66.62890625 32.78515625 C67.34771973 33.33252441 68.0665332 33.87989258 68.80712891 34.44384766 C70.21656204 35.51658466 71.62622379 36.58902136 73.03613281 37.66113281 C75.86659398 39.8173402 78.68542437 41.98830862 81.50390625 44.16015625 C86.49591405 48.00400226 91.49787532 51.83459403 96.50390625 55.66015625 C103.68173905 61.14575188 110.84635686 66.64812387 118.00390625 72.16015625 C120.17035276 73.82710917 122.33711926 75.49364594 124.50390625 77.16015625 C127.70764595 79.62420336 130.91106566 82.08865966 134.11328125 84.5546875 C140.23494082 89.26775625 146.36551037 93.96890223 152.50390625 98.66015625 C159.68171717 104.14578067 166.84635672 109.64812376 174.00390625 115.16015625 C176.17035276 116.82710917 178.33711926 118.49364594 180.50390625 120.16015625 C183.70764595 122.62420336 186.91106566 125.08865966 190.11328125 127.5546875 C196.23494082 132.26775625 202.36551037 136.96890223 208.50390625 141.66015625 C215.68171717 147.14578067 222.84635672 152.64812376 230.00390625 158.16015625 C232.17035276 159.82710917 234.33711926 161.49364594 236.50390625 163.16015625 C239.70764595 165.62420336 242.91106566 168.08865966 246.11328125 170.5546875 C252.23494082 175.26775625 258.36551037 179.96890223 264.50390625 184.66015625 C271.68171717 190.14578067 278.84635672 195.64812376 286.00390625 201.16015625 C288.17035276 202.82710917 290.33711926 204.49364594 292.50390625 206.16015625 C295.70764595 208.62420336 298.91106566 211.08865966 302.11328125 213.5546875 C303.1496875 214.35261719 304.18609375 215.15054688 305.25390625 215.97265625 C305.77839355 216.37669678 306.30288086 216.7807373 306.84326172 217.19702148 C309.95977942 219.59552251 313.0839203 221.98360965 316.21484375 224.36328125 C326.9308007 232.51302658 337.47656874 240.73236259 347.421875 249.82421875 C348.84676912 251.11330601 350.27804337 252.3958268 351.73510742 253.6484375 C364.49654041 264.62381352 376.84586922 276.71265305 387.00390625 290.16015625 C387.77089844 291.12179687 388.53789063 292.0834375 389.328125 293.07421875 C435.4008381 351.03489706 456.71197863 425.85445011 448.75390625 499.4296875 C441.18354493 560.81128289 413.75610608 617.81292727 371.39550781 662.66699219 C369.30085976 664.9145128 367.28231862 667.22792431 365.25390625 669.53515625 C362.07179953 673.08223578 358.77661404 676.2736311 355.1328125 679.33984375 C352.70481387 681.41589396 350.39614988 683.59948425 348.06640625 685.78515625 C278.05077125 749.43573352 183.8669251 771.55684125 91.53979492 768.0670166 C82.94654344 767.63931771 74.48567358 766.57037781 66.00390625 765.16015625 C64.20179688 764.87011719 64.20179688 764.87011719 62.36328125 764.57421875 C-8.85921592 752.80070391 -73.58972842 720.43905622 -124.87109375 669.53515625 C-125.73895508 668.67664063 -126.60681641 667.818125 -127.50097656 666.93359375 C-133.42041551 660.9846823 -138.77904263 654.72910857 -143.99609375 648.16015625 C-144.94935375 646.99123477 -145.90358535 645.82310398 -146.859375 644.65625 C-158.00342234 630.73952103 -167.66240946 615.91818091 -175.99609375 600.16015625 C-176.33592285 599.51900879 -176.67575195 598.87786133 -177.02587891 598.21728516 C-194.96904712 564.05575829 -206.22407001 527.4417549 -206.12646484 488.70751953 C-206.12104764 486.13828794 -206.12646632 483.56922667 -206.1328125 481 C-206.13215268 479.36588503 -206.13087352 477.73177017 -206.12890625 476.09765625 C-206.13093048 475.33001953 -206.13295471 474.56238281 -206.13504028 473.77148438 C-206.111093 468.39015475 -206.111093 468.39015475 -204.99609375 466.16015625 C-212.83902751 472.21518717 -220.5258398 478.3953592 -228.01733398 484.88110352 C-232.12710282 488.43379223 -236.31274343 491.86809489 -240.57421875 495.23828125 C-245.09271116 498.82392361 -249.53678083 502.50139319 -253.99609375 506.16015625 C-255.82919537 507.66043942 -257.66252802 509.16044033 -259.49609375 510.66015625 C-260.40359375 511.40265625 -261.31109375 512.14515625 -262.24609375 512.91015625 C-290.66276042 536.16015625 -319.07942708 559.41015625 -347.49609375 582.66015625 C-348.41132813 583.40910156 -349.3265625 584.15804687 -350.26953125 584.9296875 C-352.02427159 586.3651556 -353.7794453 587.80009421 -355.53515625 589.234375 C-356.81519531 590.28044922 -356.81519531 590.28044922 -358.12109375 591.34765625 C-359.0234375 592.085 -359.92578125 592.82234375 -360.85546875 593.58203125 C-363.24821069 595.54200991 -365.63103593 597.51367554 -368.01171875 599.48828125 C-372.32514738 603.06366147 -376.65365554 606.62006876 -380.99609375 610.16015625 C-381.59244629 610.64726074 -382.18879883 611.13436523 -382.80322266 611.63623047 C-402.29873307 627.45120595 -423.6240898 637.03279648 -449.36328125 634.6953125 C-463.51106667 632.61117637 -477.16673407 626.74466284 -485.99609375 615.16015625 C-495.41954386 600.35362129 -497.65750055 585.93863945 -494.3125 568.62109375 C-488.45774533 545.56637091 -473.44991344 530.13859592 -454.99609375 516.16015625 C-454.34092773 515.66306152 -453.68576172 515.1659668 -453.01074219 514.65380859 C-449.72727393 512.1711663 -446.4294759 509.7084878 -443.125 507.25390625 C-438.72139112 503.97150366 -434.38712967 500.60314744 -430.05859375 497.22265625 C-422.0512048 490.97057102 -413.99185039 484.78959366 -405.91552734 478.62695312 C-403.10372875 476.47822685 -400.2997522 474.31949567 -397.49609375 472.16015625 C-392.50408595 468.31631024 -387.50212468 464.48571847 -382.49609375 460.66015625 C-375.31826312 455.17456228 -368.15329071 449.67264381 -360.99609375 444.16015625 C-353.10986104 438.08616389 -345.21167612 432.02827608 -337.30273438 425.98388672 C-330.85662483 421.05630388 -324.42424957 416.11113485 -317.99609375 411.16015625 C-310.10986104 405.08616389 -302.21167612 399.02827608 -294.30273438 392.98388672 C-287.85662483 388.05630388 -281.42424957 383.11113485 -274.99609375 378.16015625 C-267.10986104 372.08616389 -259.21167612 366.02827608 -251.30273438 359.98388672 C-244.85662281 355.05630234 -238.42456633 350.11072621 -231.99609375 345.16015625 C-229.284811 343.07398396 -226.57303698 340.9884504 -223.86132812 338.90283203 C-221.20256897 336.85781638 -218.54427198 334.81220808 -215.88671875 332.765625 C-209.03592551 327.49119587 -202.17225466 322.23390078 -195.30273438 316.98388672 C-188.85662483 312.05630388 -182.42424957 307.11113485 -175.99609375 302.16015625 C-168.11357736 296.0890262 -160.21962348 290.03331969 -152.3137207 283.99267578 C-146.87297199 279.83438487 -141.44443913 275.66055704 -136.0234375 271.4765625 C-133.62711502 269.6429893 -131.22155811 267.82456817 -128.80688477 266.01538086 C-128.09170181 265.47940781 -127.37651886 264.94343475 -126.6396637 264.39122009 C-126.09728561 263.98496902 -125.55490753 263.57871796 -124.99609375 263.16015625 C-126.0148569 263.15868969 -127.03362005 263.15722313 -128.08325481 263.15571213 C-152.90652558 263.11906811 -177.72966194 263.05955427 -202.55282116 262.97625351 C-214.55727033 262.93649526 -226.56165426 262.90408641 -238.56616211 262.88916016 C-249.03296708 262.87612702 -259.49962829 262.84911983 -269.96635228 262.80554318 C-275.50508333 262.7829659 -281.0436373 262.76724334 -286.58241844 262.7682724 C-291.80357806 262.76902121 -297.02434678 262.75098171 -302.2454052 262.71898842 C-304.15403204 262.71052133 -306.06270288 262.70871762 -307.97134018 262.71435356 C-324.21530748 262.75590328 -338.64809865 260.77589099 -351.09375 249.2109375 C-359.4625784 240.166917 -361.49304748 231.29776157 -361.2734375 219.2734375 C-361.01787518 213.72608219 -359.4614414 209.11396418 -356.99609375 204.16015625 C-356.58359375 203.32097656 -356.17109375 202.48179687 -355.74609375 201.6171875 C-347.38545192 186.29726142 -332.619881 176.5763645 -316.4453125 171.1328125 C-306.91054875 168.44407391 -298.18654397 167.86756107 -288.3356781 167.88168335 C-286.74398439 167.87667554 -285.15229321 167.87079833 -283.56060559 167.86413062 C-279.20272225 167.84837532 -274.84490347 167.8449024 -270.4869951 167.84348202 C-265.78156928 167.83978015 -261.07617855 167.82462075 -256.37077332 167.81086731 C-248.22361559 167.78861537 -240.07647038 167.77358966 -231.92928886 167.76350021 C-220.14989925 167.74890216 -208.37055326 167.72336215 -196.59118927 167.69516893 C-177.4790173 167.64972142 -158.36683904 167.61309817 -139.25463867 167.58203125 C-120.69115088 167.55183735 -102.12767847 167.51748321 -83.56420898 167.47753906 C-81.8472463 167.47384674 -81.8472463 167.47384674 -80.0955975 167.47007982 C-74.3531497 167.45770506 -68.61070208 167.44524856 -62.86825454 167.43275142 C-15.24422241 167.32921418 32.37982891 167.24000084 80.00390625 167.16015625 C77.91853767 165.39060161 75.83250895 163.6218355 73.74609375 161.85351562 C72.86473755 161.10542633 72.86473755 161.10542633 71.96557617 160.34222412 C68.04507082 157.0207995 64.0757539 153.79547894 60.00390625 150.66015625 C54.85267462 146.66261591 49.85024703 142.52612208 44.8984375 138.28515625 C41.01141215 134.97224361 37.03652885 131.79367315 33.00390625 128.66015625 C27.85513326 124.65934368 22.85039215 120.52624636 17.8984375 116.28515625 C14.01141215 112.97224361 10.03652885 109.79367315 6.00390625 106.66015625 C0.85432443 102.65871519 -4.15149653 98.52528502 -9.10375977 94.28295898 C-12.96784403 90.98899509 -16.92230181 87.83499051 -20.93359375 84.72265625 C-49.98701281 62.08674063 -49.98701281 62.08674063 -52.99609375 49.16015625 C-54.2463579 37.94644687 -52.35297228 29.49650407 -45.74609375 20.41015625 C-36.01812032 8.70779497 -21.25847048 2.38195587 -6.37109375 0.47265625 C-4.24803876 0.29728967 -2.12338133 0.17036915 0 0 Z " fill="#E87D0D" transform="translate(530.99609375,127.83984375)"/>
<path d="M0 0 C0.8559375 0.64324219 1.711875 1.28648437 2.59375 1.94921875 C7.68064025 5.88825552 12.45413793 10.14838083 17.1875 14.5 C17.75791016 15.02182861 18.32832031 15.54365723 18.91601562 16.08129883 C43.93856486 39.40795564 61.41498213 71.50073694 68.52978516 104.8046875 C68.83361011 106.22316829 69.14524897 107.64000801 69.46630859 109.0546875 C72.31420688 121.71474993 72.36830399 134.07033484 72 147 C71.98066406 148.30582031 71.96132813 149.61164063 71.94140625 150.95703125 C70.20058717 197.95914648 44.88421511 238.77093419 11.71923828 270.41259766 C-8.64573982 289.21593301 -33.18298269 301.60942493 -59 311 C-59.73895508 311.26973633 -60.47791016 311.53947266 -61.23925781 311.81738281 C-96.13632806 324.29388737 -136.99174563 325.55524875 -173 318 C-174.40330566 317.71116943 -174.40330566 317.71116943 -175.83496094 317.41650391 C-226.30714628 306.81362468 -273.38636073 277.43298571 -302 234 C-318.62906026 208.06125502 -329.07544242 178.93248081 -330 148 C-330.03254883 147.12843262 -330.06509766 146.25686523 -330.09863281 145.35888672 C-331.36177822 107.95574772 -319.97446386 71.35146942 -298 41 C-296.87271484 39.42605469 -296.87271484 39.42605469 -295.72265625 37.8203125 C-263.30617892 -6.05614672 -212.08485838 -32.4888339 -158.875 -40.875 C-103.67079477 -48.59952881 -44.34197602 -33.76036811 0 0 Z " fill="#FEFEFE" transform="translate(780,432)"/>
<path d="M0 0 C11.69556683 11.10895532 19.93348098 24.10965608 26.4921875 38.7421875 C26.91242188 39.66902344 27.33265625 40.59585938 27.765625 41.55078125 C38.51169035 66.79999496 36.50238535 96.20188373 26.4375 121.265625 C13.92850312 150.82205883 -10.79137088 173.48728224 -40.22949219 185.65478516 C-71.18358171 197.88118614 -106.95154598 200.00390343 -138.5078125 188.7421875 C-139.14380371 188.52046875 -139.77979492 188.29875 -140.43505859 188.0703125 C-165.71778848 179.1156056 -188.91634796 162.48596826 -203.5078125 139.7421875 C-203.8697168 139.18112305 -204.23162109 138.62005859 -204.60449219 138.04199219 C-220.04921872 113.67013472 -225.1440602 85.01195345 -219.5078125 56.7421875 C-214.54985209 35.58468798 -203.43545578 17.36478624 -188.5078125 1.7421875 C-187.70150391 0.84113281 -187.70150391 0.84113281 -186.87890625 -0.078125 C-138.04489422 -52.70625826 -49.96917452 -44.98782379 0 0 Z " fill="#265787" transform="translate(749.5078125,486.2578125)"/>
</svg>
