<svg preserveAspectRatio="xMidYMid meet" data-bbox="0 0 60 60" xmlns="http://www.w3.org/2000/svg" viewBox="0 0 60 60" height="60" width="60" data-type="ugc" role="img" aria-label="Wix Studio mobile app logo">
    <g>
        <mask height="60" width="60" y="0" x="0" maskUnits="userSpaceOnUse" style="mask-type:alpha" id="37ac1ca3-abae-41b8-ab2f-f5d0903a05db_comp-lm9djrk6" fill="none">
            <path fill="#ffffff" d="M60 12.5v35C60 54.404 54.404 60 47.5 60h-35C5.596 60 0 54.404 0 47.5v-35C0 5.596 5.596 0 12.5 0h35C54.404 0 60 5.596 60 12.5z"></path>
        </mask>
        <g mask="url(#37ac1ca3-abae-41b8-ab2f-f5d0903a05db_comp-lm9djrk6)">
            <path fill="url(#2ce36e9d-0164-4c86-b375-3f3b006643f9_comp-lm9djrk6)" d="M60 0v60H0V0h60z"></path>
            <g clip-path="url(#dc08ff01-7a7a-455f-b658-4c19cb7252d1_comp-lm9djrk6)">
                <path fill="#ffffff" d="M42.296 18.809h-1.372c-.38 0-.736.188-.95.503l-1.834 2.706a.123.123 0 0 1-.204 0l-1.834-2.706a1.147 1.147 0 0 0-.95-.503H33.78l3.268 4.82-3.25 4.795h1.372c.38 0 .736-.189.95-.504l1.816-2.68a.123.123 0 0 1 .204 0l1.816 2.68c.214.315.57.504.95.504h1.372l-3.25-4.794 3.268-4.821Z"></path>
                <path fill="#ffffff" d="M30.96 19.792v8.632h.655c.543 0 .984-.44.984-.984v-8.63h-.656a.983.983 0 0 0-.984.983Z"></path>
                <path fill="#ffffff" d="M29.758 18.809h-.583c-.643 0-1.2.444-1.342 1.07l-1.305 5.738-1.142-5.356a1.822 1.822 0 0 0-2.267-1.37c-.662.182-1.153.742-1.296 1.413l-1.13 5.306-1.303-5.73a1.376 1.376 0 0 0-1.342-1.071h-.583l2.186 9.614h.829c.752 0 1.401-.525 1.558-1.26l1.398-6.56a.178.178 0 0 1 .173-.14c.083 0 .156.058.174.14l1.399 6.56c.156.735.806 1.26 1.558 1.26h.831l2.187-9.614Z"></path>
            </g>
            <path fill="#ffffff" d="m7.824 39.734.838-.827c.693.875 1.576 1.312 2.647 1.312.606 0 1.087-.13 1.441-.39a1.27 1.27 0 0 0 .543-1.075c0-.394-.161-.701-.484-.921-.323-.221-.862-.394-1.618-.52-1.072-.166-1.843-.434-2.316-.804-.472-.37-.709-.882-.709-1.535 0-.497.13-.93.39-1.3.26-.378.618-.673 1.075-.886.465-.213.996-.319 1.595-.319 1.347 0 2.441.492 3.284 1.477l-.803.827c-.347-.418-.72-.729-1.122-.934a2.948 2.948 0 0 0-1.359-.307c-.551 0-.992.122-1.323.367-.33.244-.496.578-.496 1.004 0 .346.15.618.449.815.307.189.819.342 1.535.46 1.103.174 1.902.461 2.399.863.496.394.744.949.744 1.666 0 .512-.138.965-.414 1.358-.267.386-.645.69-1.134.91-.488.213-1.051.319-1.69.319-1.417 0-2.574-.52-3.472-1.56Zm11.435 1.37h-1.216v-7.383H15.49v-1.063h6.32v1.063h-2.55v7.384Zm10.449-8.446v5.115c0 1.11-.291 1.977-.874 2.6-.583.614-1.386.92-2.41.92-1.024 0-1.831-.306-2.422-.92-.583-.623-.874-1.49-.874-2.6v-5.115h1.217v5.115c0 .764.18 1.359.543 1.784.37.426.882.638 1.536.638s1.162-.212 1.524-.638c.37-.425.555-1.02.555-1.784v-5.115h1.205Zm2.062 8.447v-8.447h2.788c.834 0 1.567.181 2.197.544.63.362 1.122.862 1.477 1.5.354.63.531 1.355.531 2.174 0 .827-.177 1.559-.531 2.197a3.885 3.885 0 0 1-1.477 1.488c-.63.363-1.363.544-2.197.544H31.77Zm1.216-1.063h1.572c.606 0 1.126-.13 1.56-.39a2.67 2.67 0 0 0 1.015-1.11c.236-.481.354-1.036.354-1.666 0-.63-.118-1.182-.354-1.654a2.588 2.588 0 0 0-1.016-1.099c-.433-.268-.953-.402-1.56-.402h-1.57v6.32Zm8.754 1.063h-1.217v-8.447h1.217v8.447Zm5.94.189c-.599 0-1.154-.11-1.666-.33a4.053 4.053 0 0 1-1.335-.922 4.506 4.506 0 0 1-.874-1.406 4.891 4.891 0 0 1-.307-1.76c0-.63.102-1.213.307-1.749.213-.535.504-1 .874-1.394a3.971 3.971 0 0 1 1.335-.933 4.164 4.164 0 0 1 1.666-.33c.606 0 1.162.11 1.666.33.512.22.953.532 1.323.933a4.1 4.1 0 0 1 .874 1.394 4.71 4.71 0 0 1 .319 1.749 4.73 4.73 0 0 1-.32 1.76 4.234 4.234 0 0 1-.873 1.406c-.37.393-.811.7-1.323.921-.504.22-1.06.33-1.666.33Zm0-1.099c.567 0 1.067-.142 1.5-.425a2.94 2.94 0 0 0 1.028-1.181c.252-.505.378-1.075.378-1.713 0-.646-.126-1.217-.378-1.713a2.856 2.856 0 0 0-1.028-1.17c-.433-.284-.933-.425-1.5-.425s-1.071.142-1.512.425a2.974 2.974 0 0 0-1.028 1.17c-.244.496-.366 1.067-.366 1.713 0 .638.122 1.209.366 1.713.252.496.594.89 1.028 1.18.44.284.945.426 1.512.426Z"></path>
        </g>
        <defs fill="none">
            <linearGradient gradientUnits="userSpaceOnUse" y2="-18.947" x2="30" y1="42.237" x1="30" id="2ce36e9d-0164-4c86-b375-3f3b006643f9_comp-lm9djrk6">
                <stop stop-color="#094CCD" offset=".099"></stop>
                <stop stop-color="#B7B6FF" offset="1"></stop>
            </linearGradient>
            <clipPath id="dc08ff01-7a7a-455f-b658-4c19cb7252d1_comp-lm9djrk6">
                <path transform="translate(17.464 18.808)" fill="#ffffff" d="M24.834 0v9.615H0V0h24.834z"></path>
            </clipPath>
        </defs>
    </g>
</svg>